<?xml version="1.0" encoding="iso-8859-1"?>
<!-- Uploaded to: SVG Repo, www.svgrepo.com, Generator: SVG Repo Mixer Tools -->
<!DOCTYPE svg PUBLIC "-//W3C//DTD SVG 1.1//EN" "http://www.w3.org/Graphics/SVG/1.1/DTD/svg11.dtd">
<svg fill="#545454" version="1.1" id="Capa_1" xmlns="http://www.w3.org/2000/svg" xmlns:xlink="http://www.w3.org/1999/xlink" 
	 width="200px" height="210px"  viewBox="0 0 377.114 377.115"
	 xml:space="preserve">
<g>
	<g>
		<path d="M 101.9 332.7 c -3.1 3.1 -5.5 6.7 -9.2 9.2 c -3.7 2.4 -7.3 3.1 -11.6 3.7 c -2.4 0.6 -1.2 3.1 0.6 3.7 c 10.4 1.2 20.2 -3.7 24.5 -12.9 C 106.8 333.3 103.7 330.2 101.9 332.7 z"/>
		<path d="M 111.1 295.4 c -0.6 -0.6 -1.8 -0.6 -3.1 0 c -2.4 2.4 -1.8 5.5 -1.8 8 c 0 4.3 -0.6 8 -2.4 11.6 c -0.6 2.4 2.4 3.7 3.7 1.8 c 1.8 -3.7 3.1 -7.3 3.7 -11 C 112.9 302.7 114.1 297.8 111.1 295.4 z"/>
		<path d="M 98.2 278.8 c -3.7 -1.8 -6.7 -4.9 -9.8 -7.3 c -3.1 -3.1 -5.5 -6.1 -9.2 -8.6 c -2.4 -1.2 -4.9 1.2 -3.7 3.7 c 2.4 3.7 6.1 6.7 9.8 9.8 c 3.1 2.4 6.7 4.9 10.4 6.7 C 98.8 284.3 101.3 280.7 98.2 278.8 z"/>
		<path d="M 56 259.2 c -4.3 0 -8 0.6 -11.6 2.4 c -3.1 1.8 -7.3 5.5 -7.3 9.2 c 0 1.8 2.4 3.7 4.3 2.4 c 2.4 -1.8 4.3 -4.3 6.1 -6.1 c 2.4 -1.8 5.5 -3.1 8 -3.1 C 59 264.1 59.6 259.9 56 259.2 z"/>
		<path d="M 56 303.3 c -2.4 -3.7 -2.4 -8.6 -1.2 -12.2 c 0.6 -1.8 -2.4 -3.1 -3.1 -1.2 c -1.8 4.9 -3.1 9.2 -1.8 14.1 c 1.2 4.3 4.3 10.4 8.6 11.6 c 1.8 0.6 3.7 -1.2 3.1 -3.1 C 60.9 308.8 57.8 306.4 56 303.3 z"/>
		<path d="M 98.2 326 c -2.4 -1.2 -5.5 -0.6 -8.6 -1.8 c -3.7 -1.2 -6.7 -3.7 -9.8 -6.1 c -1.8 -1.8 -4.3 0.6 -2.4 2.4 c 4.3 4.9 13.5 13.5 20.8 11 C 100.7 330.2 100.7 326.6 98.2 326 z"/>
		<path d="M 155.7 313.1 c -8 4.9 -15.9 9.8 -24.5 12.9 c -2.4 1.2 -1.8 4.9 1.2 4.3 c 9.8 -2.4 20.8 -4.3 26.9 -13.5 C 161.2 314.9 158.2 311.9 155.7 313.1 z"/>
		<path d="M 179 273.9 c -0.6 -2.4 -3.7 -2.4 -4.9 -1.2 c -3.1 2.4 -4.3 8 -6.7 11.6 c -2.4 3.7 -5.5 7.3 -8.6 11 c -1.8 1.8 1.2 4.9 3.1 3.1 c 4.3 -3.7 8 -7.3 11.6 -11 C 176.5 283.7 180.2 278.8 179 273.9 z"/>
		<path d="M 184.5 223.1 c -1.2 -1.8 -4.9 -1.2 -4.3 1.2 c 0.6 9.8 4.3 19 4.3 28.2 c 0 1.8 2.4 1.8 2.4 0 C 187.6 242.7 190 231.7 184.5 223.1 z"/>
		<path d="M 174.7 201.1 c -1.8 -3.7 -3.7 -7.3 -6.7 -10.4 c -3.1 -3.7 -6.1 -8.6 -10.4 -9.8 c -1.8 -0.6 -4.3 1.2 -3.1 3.1 c 1.2 3.7 4.9 6.1 7.3 8.6 c 3.1 3.1 6.7 6.7 9.2 10.4 C 172.9 205.4 175.9 203.6 174.7 201.1 z"/>
		<path d="M 133.7 165.6 c -3.7 -3.7 -8 -5.5 -12.9 -7.3 c -5.5 -1.2 -12.9 -2.4 -17.7 -0.6 c -3.1 1.2 -3.1 4.9 0 6.1 c 9.2 3.7 19.6 -1.2 28.2 5.5 C 133.1 170.5 134.9 167.4 133.7 165.6 z"/>
		<path d="M 95.8 178.5 c -8.6 7.3 -23.3 23.9 -13.5 35.5 c 1.8 1.8 4.9 0.6 5.5 -1.2 c 1.2 -4.9 0 -9.8 1.2 -14.1 c 1.8 -6.1 6.1 -11.6 9.8 -16.5 C 100.7 179.1 97.6 176.6 95.8 178.5 z"/>
		<path d="M 111.7 241.5 c -3.7 -3.1 -7.3 -5.5 -11 -8.6 c -3.7 -3.7 -6.1 -8 -8.6 -12.2 c -0.6 -1.8 -3.7 -0.6 -3.1 1.2 c 2.4 9.8 8.6 24.5 20.8 23.9 C 111.7 245.8 113.5 242.7 111.7 241.5 z"/>
		<path d="M 151.4 256.8 c -7.3 -1.8 -15.3 -0.6 -21.4 -5.5 c -1.2 -1.2 -3.1 0.6 -1.8 1.8 c 6.1 6.7 15.3 9.2 23.9 7.3 C 153.3 260.5 153.3 257.4 151.4 256.8 z"/>
		<path d="M 205.9 266 c -8 -4.9 -20.8 -3.7 -30 -2.4 c -2.4 0 -2.4 3.7 0 4.3 c 4.9 0.6 10.4 0.6 15.3 1.8 c 4.3 0.6 8.6 2.4 12.9 2.4 C 207.8 271.5 208.4 267.2 205.9 266 z"/>
		<path d="M 254.3 243.3 c -4.9 1.8 -8 4.9 -12.2 8 c -4.3 3.7 -8.6 6.1 -13.5 8.6 c -2.4 1.2 -0.6 5.5 1.8 4.9 c 4.9 -1.2 8.6 -3.7 12.9 -6.1 c 4.9 -3.1 9.8 -6.1 14.1 -10.4 C 259.2 246.4 257.3 242.1 254.3 243.3 z"/>
		<path d="M 280 198 c -0.6 -2.4 -4.3 -2.4 -4.9 0 c -1.8 6.7 -3.7 12.9 -8 18.4 c -1.2 1.8 0.6 3.7 2.4 2.4 C 275.7 213.3 281.2 207.2 280 198 z"/>
		<path d="M 279.4 146.6 c -1.8 -2.4 -5.5 -0.6 -4.9 1.8 c 2.4 8 3.1 16.5 3.7 24.5 c 0 2.4 4.3 2.4 4.3 0 C 283.6 164.4 284.9 154.6 279.4 146.6 z"/>
		<path d="M 260.4 95.8 c -1.8 -2.4 -4.9 0.6 -3.7 3.1 c 3.7 8.6 9.2 16.5 13.5 25.1 c 0.6 1.8 3.7 0.6 3.1 -1.2 C 270.8 113 267.1 103.2 260.4 95.8 z"/>
		<path d="M 231.6 80.5 c -5.5 -5.5 -15.9 -13.5 -24.5 -10.4 c -2.4 0.6 -2.4 4.3 0 4.9 c 3.7 1.2 7.3 0.6 11 1.8 S 225.5 80.5 228.6 83.6 C 230.4 84.8 232.8 82.4 231.6 80.5 z"/>
		<path d="M 188.8 77.5 c -5.5 0 -10.4 1.2 -14.1 5.5 c -3.1 3.7 -8 11.6 -4.9 16.5 c 1.2 2.4 4.3 1.8 6.1 0 c 1.2 -1.8 1.2 -3.1 1.2 -4.9 s 0.6 -4.3 1.8 -6.1 c 1.8 -3.7 5.5 -8 9.8 -8.6 C 190.6 79.9 190.6 77.5 188.8 77.5 z"/>
		<path d="M 201 140.5 c -3.1 -4.3 -8 -7.3 -11 -11 c -3.7 -4.3 -6.1 -9.2 -8.6 -14.1 c -1.2 -2.4 -4.9 -0.6 -4.3 1.8 c 2.4 9.8 9.8 24.5 20.2 27.5 C 199.8 145.4 202.2 142.4 201 140.5 z"/>
		<path d="M 250.6 168.1 c -4.9 -2.4 -9.8 -3.1 -15.3 -4.9 c -7.3 -1.8 -13.5 -5.5 -19 -10.4 c -2.4 -2.4 -6.1 1.2 -3.7 3.7 c 8.6 9.2 23.9 17.1 36.7 17.1 C 251.8 173.6 253 169.3 250.6 168.1 z"/>
		<path d="M 300.8 127.1 c -3.1 3.1 -3.7 7.3 -4.9 11 c -1.8 4.9 -4.3 10.4 -7.3 14.7 c -2.4 2.4 1.2 6.1 3.7 3.7 c 3.7 -3.7 6.7 -8 9.2 -12.2 s 5.5 -9.8 4.9 -14.7 C 305.7 127.1 302.6 125.2 300.8 127.1 z"/>
		<path d="M 316.7 83 c -8 6.7 -10.4 20.8 -9.8 30.6 c 0 3.1 4.3 3.1 4.9 0 c 0.6 -4.3 1.8 -9.2 3.1 -13.5 c 1.8 -4.9 5.5 -9.2 6.7 -14.1 C 321.6 83 318.5 81.2 316.7 83 z"/>
		<path d="M 341.2 50.6 c -3.7 -0.6 -6.7 2.4 -9.2 4.3 c -3.1 2.4 -4.9 6.1 -6.1 9.2 c -1.2 3.1 3.1 5.5 4.3 2.4 c 1.8 -2.4 3.1 -4.9 5.5 -7.3 c 2.4 -1.8 6.1 -2.4 7.3 -5.5 C 343.6 53 343 51.2 341.2 50.6 z"/>
		<path d="M 375.4 36.5 c -1.2 -6.1 -3.1 -12.9 -5.5 -19 c -0.6 -1.8 -2.4 -3.7 -4.3 -3.7 c -12.2 0.6 -23.3 4.3 -33.7 11 c -3.7 2.4 -0.6 8 3.7 6.1 c 8.6 -4.9 17.1 -7.3 26.3 -7.3 c 1.2 4.3 2.4 8.6 3.7 12.9 c 1.2 4.9 0.6 9.8 3.7 13.5 c 1.8 2.4 4.9 1.2 6.1 -0.6 C 378.5 45.7 376.7 40.1 375.4 36.5 z"/>
	</g>
</g>
</svg>